<svg xmlns="http://www.w3.org/2000/svg" xmlns:xlink="http://www.w3.org/1999/xlink" version="1.1" x="0px" y="0px" viewBox="0 0 100 100" enable-background="new 0 0 100 100" xml:space="preserve" height="100px" width="100px">
<g id="guides">
</g>
<g id="rule_of_thirds" display="none">
	<path id="svg_1_" display="inline" d="M95,37.9v-0.6H70.2V22.2h-0.6v15.2H30.3V22.2h-0.6v15.2H5v0.6h24.8V62H5v0.6h24.8v15.2h0.6   V62.6h39.4v15.2h0.6V62.6H95V62H70.2V37.9H95z M69.7,62H30.3V37.9h39.4V62z"/>
	<g id="_x31_pt_line_8_">
		<line display="inline" fill="none" stroke="#000000" stroke-miterlimit="10" x1="30" y1="77.8" x2="30" y2="22.2"/>
		<line display="inline" fill="none" stroke="#000000" stroke-miterlimit="10" x1="69.9" y1="77.8" x2="69.9" y2="22.2"/>
		<line display="inline" fill="none" stroke="#000000" stroke-miterlimit="10" x1="5" y1="37.7" x2="95" y2="37.7"/>
		<line display="inline" fill="none" stroke="#000000" stroke-miterlimit="10" x1="5" y1="62.3" x2="95" y2="62.3"/>
	</g>
</g>
<g id="hawaiian_earring" display="none">
	<path id="_x31_pt_stroke_15_" display="inline" d="M50,4.5C24.9,4.5,4.5,24.9,4.5,50S24.9,95.5,50,95.5S95.5,75.1,95.5,50   S75.1,4.5,50,4.5z M43.9,88.4c0-3.3,2.7-6.1,6.1-6.1s6.1,2.7,6.1,6.1c0,1.8-0.8,3.4-2,4.5c0.3-0.6,0.5-1.2,0.5-1.9   c0-2.5-2-4.5-4.5-4.5s-4.5,2-4.5,4.5c0,0.7,0.2,1.4,0.5,1.9C44.7,91.8,43.9,90.2,43.9,88.4z M47,92.5c0,0.1,0,0.3,0,0.4   c-0.4-0.6-0.6-1.2-0.6-1.9c0-2,1.6-3.5,3.5-3.5s3.5,1.6,3.5,3.5c0,0.7-0.2,1.4-0.6,1.9c0-0.1,0-0.3,0-0.4c0-1.7-1.4-3-3-3   S47,90.8,47,92.5z M57.1,88.4c0-3.9-3.2-7.1-7.1-7.1s-7.1,3.2-7.1,7.1c0,1.7,0.6,3.2,1.6,4.4c-2.7-1.8-4.5-4.9-4.5-8.4   c0-5.5,4.5-10.1,10.1-10.1s10.1,4.5,10.1,10.1c0,3.5-1.8,6.6-4.5,8.4C56.5,91.6,57.1,90.1,57.1,88.4z M48,93c0-0.2-0.1-0.3-0.1-0.5   c0-1.1,0.9-2,2-2s2,0.9,2,2c0,0.2,0,0.3-0.1,0.5c-0.2-0.9-1-1.5-2-1.5S48.3,92.1,48,93z M61.1,84.4c0-6.1-5-11.1-11.1-11.1   s-11.1,5-11.1,11.1c0,3.4,1.5,6.4,3.9,8.4c-5.6-2.7-9.6-8.4-9.6-15.1c0-9.2,7.5-16.7,16.7-16.7s16.7,7.5,16.7,16.7   c0,6.6-3.9,12.4-9.6,15.1C59.5,90.8,61.1,87.8,61.1,84.4z M49,93.5c0-0.6,0.5-1,1-1s1,0.5,1,1s-0.5,1-1,1S49,94,49,93.5z    M67.7,77.8c0-9.8-7.9-17.7-17.7-17.7s-17.7,7.9-17.7,17.7c0,6.4,3.4,12,8.5,15.1C30.3,89.1,22.7,79,22.7,67.2   c0-15.1,12.3-27.3,27.3-27.3s27.3,12.3,27.3,27.3c0,11.8-7.6,22-18.1,25.7C64.3,89.8,67.7,84.2,67.7,77.8z M61.9,92.9   c9.7-4.5,16.4-14.3,16.4-25.7c0-15.6-12.7-28.3-28.3-28.3S21.7,51.6,21.7,67.2c0,11.4,6.7,21.2,16.4,25.7   C19.3,87.7,5.5,70.4,5.5,50c0-24.5,20-44.5,44.5-44.5s44.5,20,44.5,44.5C94.5,70.4,80.7,87.7,61.9,92.9z"/>
	<g id="_x31_pt_line_7_">
		<circle display="inline" fill="none" stroke="#000000" stroke-miterlimit="10" cx="50" cy="46" r="45"/>
		<circle display="inline" fill="none" stroke="#000000" stroke-miterlimit="10" cx="50" cy="63.2" r="27.8"/>
		<circle display="inline" fill="none" stroke="#000000" stroke-miterlimit="10" cx="50" cy="73.8" r="17.2"/>
		<circle display="inline" fill="none" stroke="#000000" stroke-miterlimit="10" cx="50" cy="80.4" r="10.6"/>
		<circle display="inline" fill="none" stroke="#000000" stroke-miterlimit="10" cx="50" cy="84.4" r="6.6"/>
		<circle display="inline" fill="none" stroke="#000000" stroke-miterlimit="10" cx="50" cy="87" r="4.1"/>
		<circle display="inline" fill="none" stroke="#000000" stroke-miterlimit="10" cx="50" cy="88.5" r="2.5"/>
		<circle display="inline" fill="none" stroke="#000000" stroke-miterlimit="10" cx="50" cy="89.5" r="1.5"/>
	</g>
</g>
<g id="golden_spiral" display="none">
	<path id="_x31_pt_stroke_3_" display="inline" d="M60.6,21.7c-30.9,0-56.1,25.2-56.1,56.1h1c0-30.4,24.7-55.1,55.1-55.1   c18.7,0,33.9,15.2,33.9,33.9c0,11.4-9.3,20.7-20.7,20.7c-7,0-12.6-5.7-12.6-12.6c0-4.2,3.4-7.6,7.6-7.6c2.5,0,4.5,2,4.5,4.5   c0,1.4-1.2,2.6-2.6,2.6c-0.8,0-1.4-0.6-1.4-1.4h-1c0,1.3,1.1,2.4,2.4,2.4c2,0,3.6-1.6,3.6-3.6c0-3-2.5-5.5-5.5-5.5   c-4.8,0-8.6,3.9-8.6,8.6c0,7.5,6.1,13.6,13.6,13.6c12,0,21.7-9.8,21.7-21.7C95.5,37.3,79.9,21.7,60.6,21.7z"/>
	<path id="_x31_pt_line" fill="none" stroke="#000000" stroke-miterlimit="10" d="M68.7,58.8c0,1,0.8,1.9,1.9,1.9   c1.7,0,3.1-1.4,3.1-3.1c0-2.8-2.2-5-5-5c-4.5,0-8.1,3.6-8.1,8.1c0,7.3,5.9,13.1,13.1,13.1c11.7,0,21.2-9.5,21.2-21.2   c0-19-15.4-34.4-34.4-34.4C29.9,18.2,5,43.1,5,73.8"/>
</g>
<g id="golden_rectangle" display="none">
	<path id="_x31_pt_stroke_9_" d="M61.1,21.7h-1H4.5v56.6h55.6h1h12.1h1h21.2V57.1v-1V21.7H61.1z M73.3,61.1h-3.1h-0.9v-4h4V61.1z    M73.3,64.2h-2.1v-1.9v-0.2h2.1V64.2z M69.2,63.3h0.9v0.9h-0.9V63.3z M69.2,62.3v-0.2h0.9v0.2H69.2z M68.2,62.1v0.2v1.9h-7.1v-7.1   h7.1V62.1z M60.1,77.3H5.5V22.7h54.6v33.4v1v7.1v1V77.3z M73.3,77.3H61.1V65.2h7.1h1h0.9h1h2.1V77.3z M94.5,77.3H74.3V65.2v-1v-2.1   v-1v-4h20.2V77.3z M74.3,56.1h-1h-4h-1h-7.1V22.7h33.4v33.4H74.3z"/>
	<g id="_x31_pt_line_9_" display="inline">
		<rect x="5" y="22.2" fill="none" stroke="#000000" stroke-miterlimit="10" width="55.6" height="55.6"/>
		<rect x="60.6" y="22.2" fill="none" stroke="#000000" stroke-miterlimit="10" width="34.4" height="34.4"/>
		<rect x="73.8" y="56.6" fill="none" stroke="#000000" stroke-miterlimit="10" width="21.2" height="21.2"/>
		<rect x="60.6" y="64.7" fill="none" stroke="#000000" stroke-miterlimit="10" width="13.1" height="13.1"/>
		<rect x="60.6" y="56.6" fill="none" stroke="#000000" stroke-miterlimit="10" width="8.1" height="8.1"/>
		<rect x="68.7" y="56.6" fill="none" stroke="#000000" stroke-miterlimit="10" width="5" height="5"/>
		<rect x="70.6" y="61.6" fill="none" stroke="#000000" stroke-miterlimit="10" width="3.1" height="3.1"/>
		<rect x="68.7" y="62.8" fill="none" stroke="#000000" stroke-miterlimit="10" width="1.9" height="1.9"/>
	</g>
</g>
<g id="golden_mean" display="none">
	<path id="_x31_pt_stroke_2_" display="inline" d="M95,43.9v-1H61.1V22.2h-1v20.7H39.9V22.2h-1v20.7H5v1h33.9v12.1H5v1h33.9v20.7h1   V57.1h20.2v20.7h1V57.1H95v-1H61.1V43.9H95z M60.1,56.1H39.9V43.9h20.2V56.1z"/>
	<g id="_x31_pt_line_2_">
		<line display="inline" fill="none" stroke="#000000" stroke-miterlimit="10" x1="5" y1="43.4" x2="95" y2="43.4"/>
		<line display="inline" fill="none" stroke="#000000" stroke-miterlimit="10" x1="5" y1="56.6" x2="95" y2="56.6"/>
		<line display="inline" fill="none" stroke="#000000" stroke-miterlimit="10" x1="39.4" y1="22.2" x2="39.4" y2="77.8"/>
		<line display="inline" fill="none" stroke="#000000" stroke-miterlimit="10" x1="60.6" y1="22.2" x2="60.6" y2="77.8"/>
	</g>
</g>
<g id="golden_circles" display="none">
	<g id="_x31_pt_stroke_4_" display="inline">
		<path d="M32.8,21.7C17.2,21.7,4.5,34.4,4.5,50s12.7,28.3,28.3,28.3c15.6,0,28.3-12.7,28.3-28.3S48.4,21.7,32.8,21.7z M32.8,77.3    C17.8,77.3,5.5,65.1,5.5,50s12.3-27.3,27.3-27.3c15.1,0,27.3,12.3,27.3,27.3S47.9,77.3,32.8,77.3z"/>
		<path d="M84.4,56.1c-0.3,0-0.6,0-0.9,0c7-2.4,12-9,12-16.7c0-9.8-7.9-17.7-17.7-17.7c-9.8,0-17.7,7.9-17.7,17.7    s7.9,17.7,17.7,17.7c0.8,0,1.6-0.1,2.4-0.2c-2.7,1.1-4.8,3.2-6,5.8c-0.1-0.6-0.5-1.1-1-1.4c0.6-0.6,1.1-1.4,1.1-2.3    c0-1.7-1.3-3-3-3c-1.3,0-2.4,0.8-2.8,2c-0.8-1.2-2.2-2-3.8-2c-2.5,0-4.6,2-4.6,4.6c0,2.2,1.6,4.1,3.8,4.5    c-2.2,1.2-3.7,3.5-3.7,6.2c0,3.9,3.1,7,7,7c3.7,0,6.8-2.9,7-6.6c1.7,3.9,5.6,6.6,10.1,6.6c6.1,0,11.1-5,11.1-11.1    C95.5,61.1,90.5,56.1,84.4,56.1z M61.1,39.4c0-9.2,7.5-16.7,16.7-16.7c9.2,0,16.7,7.5,16.7,16.7S87,56.1,77.8,56.1    C68.6,56.1,61.1,48.6,61.1,39.4z M69.2,63.7c0-0.2,0.2-0.4,0.4-0.4c0.2,0,0.4,0.2,0.4,0.4s-0.2,0.4-0.4,0.4    C69.4,64.2,69.2,64,69.2,63.7z M70.3,62.4c-0.2-0.1-0.4-0.1-0.6-0.1c-0.4,0-0.7,0.1-0.9,0.4c0.2-0.4,0.4-0.9,0.4-1.4    c0.4,0.3,0.8,0.6,1.3,0.7C70.4,62.1,70.3,62.3,70.3,62.4z M68.4,64.4c-0.3-0.1-0.7-0.1-1-0.1c0.3-0.3,0.6-0.6,0.9-0.9    c0,0.1-0.1,0.2-0.1,0.4C68.2,64,68.3,64.2,68.4,64.4z M73.3,63.1c0,0.6-0.5,1.1-1.1,1.1s-1.1-0.5-1.1-1.1s0.5-1.1,1.1-1.1    S73.3,62.5,73.3,63.1z M71.2,57.1c1.1,0,2,0.9,2,2s-0.9,2-2,2s-2-0.9-2-2S70.1,57.1,71.2,57.1z M61.1,60.6c0-2,1.6-3.6,3.6-3.6    s3.6,1.6,3.6,3.6s-1.6,3.6-3.6,3.6S61.1,62.6,61.1,60.6z M67.2,77.3c-3.3,0-6-2.7-6-6s2.7-6,6-6s6,2.7,6,6S70.5,77.3,67.2,77.3z     M70.4,65c0.2-0.1,0.3-0.2,0.5-0.4c0.4,0.3,0.8,0.5,1.4,0.5c0.5,0,1-0.2,1.4-0.5c-0.2,0.8-0.3,1.7-0.3,2.5c0,0.2,0,0.4,0,0.6    C72.6,66.6,71.6,65.6,70.4,65z M84.4,77.3c-5.6,0-10.1-4.5-10.1-10.1s4.5-10.1,10.1-10.1s10.1,4.5,10.1,10.1S90,77.3,84.4,77.3z"/>
	</g>
	<g id="_x31_pt_line_3_">
		<circle display="inline" fill="none" stroke="#000000" stroke-miterlimit="10" cx="32.8" cy="46" r="27.8"/>
		<circle display="inline" fill="none" stroke="#000000" stroke-miterlimit="10" cx="77.8" cy="35.4" r="17.2"/>
		<circle display="inline" fill="none" stroke="#000000" stroke-miterlimit="10" cx="84.4" cy="63.2" r="10.6"/>
		<circle display="inline" fill="none" stroke="#000000" stroke-miterlimit="10" cx="67.2" cy="67.3" r="6.5"/>
		<circle display="inline" fill="none" stroke="#000000" stroke-miterlimit="10" cx="64.7" cy="56.6" r="4.1"/>
		<circle display="inline" fill="none" stroke="#000000" stroke-miterlimit="10" cx="71.2" cy="55.1" r="2.5"/>
		<circle display="inline" fill="none" stroke="#000000" stroke-miterlimit="10" cx="72.2" cy="59.1" r="1.6"/>
		<circle display="inline" fill="none" stroke="#000000" stroke-miterlimit="10" cx="69.7" cy="59.7" r="0.9"/>
	</g>
</g>
<g id="fibonacci_circles" display="none">
	<path id="_x31_pt_stroke" d="M50,4.5C24.9,4.5,4.5,24.9,4.5,50S24.9,95.5,50,95.5S95.5,75.1,95.5,50S75.1,4.5,50,4.5z M51.4,5.5   c11.2,0.6,20.7,8,24.3,18.1c-3.1-5.1-8.7-8.5-15.1-8.5c-9.8,0-17.7,7.9-17.7,17.7s7.9,17.7,17.7,17.7c6.4,0,12-3.4,15.1-8.5   C72,52.5,61.8,60.1,50,60.1c-15.1,0-27.3-12.3-27.3-27.3c0-14.6,11.5-26.5,25.9-27.3c0.5,0,0.9,0,1.4,0S50.9,5.5,51.4,5.5z    M52.3,45.1c1.2,0.9,2.7,1.5,4.3,1.5c3.9,0,7.1-3.2,7.1-7.1s-3.2-7.1-7.1-7.1c-1.6,0-3.1,0.5-4.3,1.5c1.8-2.7,4.9-4.4,8.3-4.4   c5.5,0,10.1,4.5,10.1,10.1s-4.5,10.1-10.1,10.1C57.2,49.5,54.1,47.7,52.3,45.1z M52.5,35c-0.3,0.6-0.5,1.2-0.5,1.9   c0,2.5,2,4.6,4.6,4.6c2.5,0,4.5-2,4.5-4.6c0-0.7-0.2-1.4-0.5-1.9c1.2,1.1,2,2.7,2,4.5c0,3.3-2.7,6.1-6.1,6.1c-2.8,0-5.2-2-5.9-4.6   c-0.1-0.5-0.1-1-0.1-1.5c0-0.5,0-1,0.1-1.5C51,36.8,51.6,35.8,52.5,35z M56.1,36.9c0-1.1,0.9-2,2-2c1.1,0,2,0.9,2,2   c0,0.2,0,0.3-0.1,0.5c-0.2-0.9-1-1.5-2-1.5s-1.7,0.6-2,1.5C56.1,37.3,56.1,37.1,56.1,36.9z M57.1,37.9c0-0.6,0.5-1,1-1   c0.6,0,1,0.5,1,1s-0.5,1-1,1C57.5,38.9,57.1,38.5,57.1,37.9z M58.5,33.9c-0.1,0-0.3,0-0.4,0c-1.7,0-3,1.4-3,3s1.4,3,3,3   c0.1,0,0.3,0,0.4,0c-0.6,0.4-1.2,0.6-1.9,0.6c-2,0-3.6-1.6-3.6-3.6s1.6-3.5,3.6-3.5C57.3,33.4,57.9,33.6,58.5,33.9z M71.7,39.4   c0-6.1-5-11.1-11.1-11.1c-5.5,0-10.1,4.1-10.9,9.4c-0.1,0.5-0.2,1.1-0.2,1.7c0,0.6,0.1,1.1,0.2,1.7c0.4,2.7,1.8,5.1,3.8,6.8   c-5.6-2.7-9.6-8.4-9.6-15.1c0-9.2,7.5-16.7,16.7-16.7c9.2,0,16.7,7.5,16.7,16.7c0,6.6-3.9,12.4-9.6,15.1   C70.1,45.8,71.7,42.8,71.7,39.4z M50,94.5c-24.5,0-44.5-20-44.5-44.5c0-20.4,13.8-37.7,32.6-42.9c-9.7,4.5-16.4,14.3-16.4,25.7   c0,15.6,12.7,28.3,28.3,28.3s28.3-12.7,28.3-28.3c0-11.4-6.7-21.2-16.4-25.7C80.7,12.3,94.5,29.6,94.5,50   C94.5,74.5,74.5,94.5,50,94.5z"/>
	<g id="_x31_pt_line_1_" display="inline">
		<circle fill="none" stroke="#000000" stroke-miterlimit="10" cx="50" cy="46" r="45"/>
		<circle fill="none" stroke="#000000" stroke-miterlimit="10" cx="50" cy="28.8" r="27.8"/>
		<circle fill="none" stroke="#000000" stroke-miterlimit="10" cx="60.6" cy="28.8" r="17.2"/>
		<circle fill="none" stroke="#000000" stroke-miterlimit="10" cx="60.6" cy="35.4" r="10.6"/>
		<circle fill="none" stroke="#000000" stroke-miterlimit="10" cx="56.6" cy="35.4" r="6.6"/>
		<circle fill="none" stroke="#000000" stroke-miterlimit="10" cx="56.6" cy="32.9" r="4.1"/>
		<circle fill="none" stroke="#000000" stroke-miterlimit="10" cx="58.1" cy="32.9" r="2.5"/>
		<circle fill="none" stroke="#000000" stroke-miterlimit="10" cx="58.1" cy="33.9" r="1.5"/>
	</g>
</g>
<g id="Icon">
	<path id="color_wheel_2_" display="none" d="M76.9,40.8L76.9,40.8L76.9,40.8c0.7-2.5,1.1-5.2,1.1-7.8C78,17.6,65.4,5,50,5   S22,17.6,22,33c0,2.7,0.4,5.3,1.1,7.8l0,0l0,0C12.3,44.9,5,55.4,5,67c0,15.4,12.6,28,28,28c6.2,0,12.1-2,17-5.8l0,0l0,0   C54.9,93,60.8,95,67,95c15.4,0,28-12.6,28-28C95,55.4,87.7,44.9,76.9,40.8z M51,87.1c-0.2,0.2-0.4,0.3-0.6,0.5   c-0.2,0.1-0.3,0.3-0.5,0.4c-0.2-0.1-0.3-0.3-0.5-0.4c-0.2-0.2-0.4-0.3-0.6-0.5c-0.2-0.2-0.4-0.4-0.6-0.5c-0.2-0.2-0.4-0.3-0.5-0.5   c-0.2-0.2-0.4-0.4-0.5-0.6c-0.2-0.2-0.3-0.4-0.5-0.5c-0.2-0.2-0.3-0.4-0.5-0.6c-0.2-0.2-0.3-0.4-0.5-0.6c-0.2-0.2-0.3-0.4-0.5-0.6   c-0.1-0.2-0.3-0.4-0.4-0.6c-0.2-0.2-0.3-0.4-0.4-0.6c-0.1-0.2-0.3-0.4-0.4-0.6c-0.1-0.2-0.3-0.4-0.4-0.7c-0.1-0.2-0.2-0.4-0.4-0.6   c-0.1-0.2-0.2-0.5-0.4-0.7c-0.1-0.2-0.2-0.4-0.3-0.6c-0.1-0.2-0.2-0.5-0.3-0.7c-0.1-0.2-0.2-0.4-0.3-0.7c-0.1-0.2-0.2-0.5-0.3-0.7   c-0.1-0.2-0.2-0.4-0.2-0.7c-0.1-0.3-0.2-0.5-0.2-0.8c-0.1-0.2-0.1-0.4-0.2-0.7c-0.1-0.3-0.1-0.5-0.2-0.8c-0.1-0.2-0.1-0.4-0.2-0.7   c-0.1-0.3-0.1-0.6-0.2-0.8c0-0.2-0.1-0.4-0.1-0.7c-0.1-0.3-0.1-0.6-0.1-0.9c0-0.2-0.1-0.4-0.1-0.6c0-0.3-0.1-0.7-0.1-1   c0-0.2,0-0.3,0-0.5c0-0.5,0-1,0-1.5c0-0.7,0-1.3,0.1-2c0-0.2,0-0.4,0.1-0.7c0-0.4,0.1-0.9,0.1-1.3c0-0.3,0.1-0.5,0.1-0.8   c0.1-0.4,0.1-0.8,0.2-1.1c0.1-0.3,0.1-0.6,0.2-0.8c0.1-0.3,0.1-0.5,0.2-0.8c0.3,0.1,0.6,0.2,1,0.3c0.3,0.1,0.7,0.2,1,0.3   c0.4,0.1,0.7,0.2,1.1,0.2c0.4,0.1,0.8,0.2,1.2,0.3c0.3,0,0.5,0.1,0.8,0.1c1.3,0.2,2.5,0.3,3.8,0.3s2.6-0.1,3.8-0.3   c0.3,0,0.5-0.1,0.8-0.1c0.4-0.1,0.8-0.2,1.2-0.3c0.4-0.1,0.7-0.1,1.1-0.2c0.4-0.1,0.7-0.2,1-0.3c0.3-0.1,0.6-0.2,1-0.3   c0.1,0.3,0.1,0.5,0.2,0.8c0.1,0.3,0.1,0.5,0.2,0.8c0.1,0.4,0.1,0.8,0.2,1.1c0,0.3,0.1,0.5,0.1,0.8c0.1,0.4,0.1,0.9,0.1,1.3   c0,0.2,0.1,0.4,0.1,0.7c0,0.7,0.1,1.3,0.1,2c0,0.5,0,1,0,1.5c0,0.2,0,0.3,0,0.5c0,0.3,0,0.7-0.1,1c0,0.2-0.1,0.4-0.1,0.6   c0,0.3-0.1,0.6-0.1,0.9c0,0.2-0.1,0.4-0.1,0.7c-0.1,0.3-0.1,0.6-0.2,0.8c-0.1,0.2-0.1,0.4-0.2,0.7C59.1,74,59,74.3,59,74.5   c-0.1,0.2-0.1,0.4-0.2,0.7c-0.1,0.3-0.2,0.5-0.2,0.8c-0.1,0.2-0.2,0.4-0.2,0.7c-0.1,0.2-0.2,0.5-0.3,0.7c-0.1,0.2-0.2,0.4-0.3,0.7   c-0.1,0.2-0.2,0.5-0.3,0.7c-0.1,0.2-0.2,0.4-0.3,0.6c-0.1,0.2-0.2,0.5-0.4,0.7c-0.1,0.2-0.2,0.4-0.4,0.6c-0.1,0.2-0.3,0.5-0.4,0.7   c-0.1,0.2-0.3,0.4-0.4,0.6c-0.1,0.2-0.3,0.4-0.4,0.6c-0.1,0.2-0.3,0.4-0.4,0.6c-0.2,0.2-0.3,0.4-0.5,0.6c-0.2,0.2-0.3,0.4-0.5,0.6   c-0.2,0.2-0.3,0.4-0.5,0.6c-0.2,0.2-0.3,0.4-0.5,0.5c-0.2,0.2-0.4,0.4-0.5,0.6c-0.2,0.2-0.4,0.3-0.5,0.5   C51.4,86.7,51.2,86.9,51,87.1z M29.3,50.3c-0.3-0.3-0.5-0.7-0.8-1c-0.1-0.1-0.2-0.3-0.3-0.4c-0.2-0.3-0.4-0.6-0.6-0.9   c-0.1-0.2-0.2-0.3-0.3-0.5c-0.2-0.3-0.3-0.5-0.5-0.8c-0.1-0.2-0.2-0.4-0.3-0.6c-0.1-0.3-0.3-0.5-0.4-0.8c-0.1-0.2-0.2-0.4-0.3-0.6   c-0.1-0.3-0.3-0.5-0.4-0.8c-0.1-0.2-0.2-0.4-0.3-0.7c-0.1-0.3-0.2-0.5-0.3-0.8c-0.1-0.2-0.2-0.5-0.2-0.7c-0.1-0.2-0.1-0.4-0.2-0.5   c0.3-0.1,0.7-0.2,1-0.3c0.3-0.1,0.6-0.2,0.9-0.3c0.4-0.1,0.9-0.2,1.3-0.3c0.3-0.1,0.6-0.1,0.9-0.2c0.5-0.1,1-0.1,1.5-0.2   c0.2,0,0.5-0.1,0.7-0.1C31.5,40,32.2,40,33,40c0.8,0,1.5,0,2.2,0.1c0.2,0,0.5,0.1,0.7,0.1c0.5,0.1,1,0.1,1.5,0.2   c0.3,0,0.6,0.1,0.9,0.2c0.4,0.1,0.9,0.2,1.3,0.3c0.3,0.1,0.6,0.2,0.9,0.3c0.4,0.1,0.8,0.2,1.2,0.4c0.3,0.1,0.6,0.2,0.9,0.3   c0.4,0.1,0.8,0.3,1.1,0.4c0.3,0.1,0.6,0.3,0.9,0.4c0.4,0.2,0.7,0.3,1.1,0.5c0.3,0.2,0.6,0.3,0.9,0.5c0.3,0.2,0.7,0.4,1,0.6   c0.3,0.2,0.6,0.4,0.8,0.6c0.2,0.2,0.5,0.3,0.7,0.5c-0.2,0.2-0.4,0.4-0.6,0.5c-0.2,0.2-0.5,0.4-0.7,0.6c-0.3,0.3-0.6,0.6-0.9,0.8   c-0.2,0.2-0.4,0.4-0.6,0.6c-0.3,0.3-0.6,0.6-0.8,1c-0.2,0.2-0.3,0.4-0.5,0.6c-0.3,0.4-0.6,0.8-0.9,1.2c-0.1,0.1-0.2,0.3-0.3,0.4   c-0.4,0.6-0.7,1.1-1.1,1.7c-0.1,0.2-0.2,0.4-0.3,0.5c-0.2,0.4-0.5,0.8-0.7,1.3c-0.1,0.2-0.2,0.5-0.3,0.7c-0.2,0.4-0.3,0.8-0.5,1.1   c-0.1,0.3-0.2,0.5-0.3,0.8c-0.1,0.3-0.2,0.6-0.3,0.9c-0.2-0.1-0.4-0.1-0.5-0.2c-0.2-0.1-0.4-0.2-0.7-0.3c-0.3-0.1-0.5-0.2-0.8-0.4   c-0.2-0.1-0.4-0.2-0.6-0.3c-0.3-0.1-0.5-0.3-0.8-0.4c-0.2-0.1-0.4-0.2-0.6-0.3c-0.3-0.1-0.5-0.3-0.8-0.5c-0.2-0.1-0.4-0.2-0.5-0.3   c-0.3-0.2-0.5-0.3-0.8-0.5c-0.2-0.1-0.3-0.2-0.5-0.3c-0.3-0.2-0.5-0.4-0.8-0.6c-0.1-0.1-0.3-0.2-0.4-0.3c-0.3-0.2-0.6-0.5-0.8-0.7   c-0.1-0.1-0.2-0.2-0.3-0.3c-0.7-0.7-1.5-1.4-2.1-2.2C29.4,50.4,29.3,50.4,29.3,50.3z M75.2,42.6c-0.1,0.3-0.2,0.5-0.3,0.8   c-0.1,0.2-0.2,0.4-0.3,0.7c-0.1,0.3-0.2,0.5-0.4,0.8c-0.1,0.2-0.2,0.4-0.3,0.6c-0.1,0.3-0.3,0.5-0.4,0.8c-0.1,0.2-0.2,0.4-0.3,0.6   c-0.2,0.3-0.3,0.5-0.5,0.8c-0.1,0.2-0.2,0.3-0.3,0.5c-0.2,0.3-0.4,0.6-0.6,0.9c-0.1,0.1-0.2,0.3-0.3,0.4c-0.3,0.3-0.5,0.7-0.8,1   c-0.1,0.1-0.1,0.1-0.1,0.2c-0.7,0.8-1.4,1.5-2.1,2.2c-0.1,0.1-0.2,0.2-0.3,0.3c-0.3,0.3-0.6,0.5-0.8,0.7c-0.1,0.1-0.3,0.2-0.4,0.3   c-0.3,0.2-0.5,0.4-0.8,0.6c-0.2,0.1-0.3,0.2-0.5,0.3c-0.3,0.2-0.5,0.4-0.8,0.5c-0.2,0.1-0.4,0.2-0.5,0.3c-0.3,0.2-0.5,0.3-0.8,0.5   c-0.2,0.1-0.4,0.2-0.6,0.3c-0.3,0.1-0.5,0.3-0.8,0.4c-0.2,0.1-0.4,0.2-0.6,0.3c-0.3,0.1-0.5,0.2-0.8,0.4c-0.2,0.1-0.4,0.2-0.7,0.3   c-0.2,0.1-0.4,0.1-0.5,0.2c-0.1-0.3-0.2-0.6-0.3-0.9c-0.1-0.3-0.2-0.5-0.3-0.8c-0.2-0.4-0.3-0.8-0.5-1.1c-0.1-0.2-0.2-0.5-0.3-0.7   c-0.2-0.4-0.4-0.8-0.7-1.3c-0.1-0.2-0.2-0.4-0.3-0.5c-0.3-0.6-0.7-1.2-1.1-1.7c-0.1-0.1-0.2-0.3-0.3-0.4c-0.3-0.4-0.6-0.8-0.9-1.2   c-0.2-0.2-0.3-0.4-0.5-0.6c-0.3-0.3-0.5-0.6-0.8-1c-0.2-0.2-0.4-0.4-0.6-0.6c-0.3-0.3-0.6-0.6-0.9-0.8c-0.2-0.2-0.4-0.4-0.7-0.6   c-0.2-0.2-0.4-0.4-0.6-0.5c0.2-0.2,0.5-0.4,0.7-0.5c0.3-0.2,0.6-0.4,0.8-0.6c0.3-0.2,0.7-0.4,1-0.6c0.3-0.2,0.6-0.3,0.9-0.5   c0.4-0.2,0.7-0.4,1.1-0.5c0.3-0.1,0.6-0.3,0.9-0.4c0.4-0.2,0.8-0.3,1.1-0.4c0.3-0.1,0.6-0.2,0.9-0.3c0.4-0.1,0.8-0.2,1.2-0.4   c0.3-0.1,0.6-0.2,0.9-0.3c0.4-0.1,0.9-0.2,1.3-0.3c0.3-0.1,0.6-0.1,0.9-0.2c0.5-0.1,1-0.1,1.5-0.2c0.2,0,0.5-0.1,0.7-0.1   C65.5,40,66.2,40,67,40c0.8,0,1.5,0,2.3,0.1c0.2,0,0.5,0.1,0.7,0.1c0.5,0.1,1,0.1,1.5,0.2c0.3,0,0.6,0.1,0.9,0.2   c0.4,0.1,0.9,0.2,1.3,0.3c0.3,0.1,0.6,0.2,0.9,0.3c0.3,0.1,0.7,0.2,1,0.3c-0.1,0.2-0.1,0.4-0.2,0.5C75.4,42.2,75.3,42.4,75.2,42.6z    M56.7,59.1c-0.5,0.1-1,0.2-1.4,0.3c-0.3,0.1-0.5,0.1-0.8,0.2c-0.6,0.1-1.1,0.2-1.7,0.2c-0.2,0-0.4,0.1-0.5,0.1   c-1.5,0.1-3,0.1-4.6,0c-0.2,0-0.4,0-0.5-0.1c-0.6-0.1-1.1-0.1-1.7-0.2c-0.3,0-0.5-0.1-0.8-0.2c-0.5-0.1-1-0.2-1.4-0.3   c-0.3-0.1-0.6-0.2-0.9-0.3c-0.3-0.1-0.7-0.2-1-0.3c0.1-0.3,0.2-0.5,0.3-0.8c0.1-0.3,0.2-0.6,0.3-0.8c0.1-0.4,0.3-0.7,0.5-1.1   c0.1-0.2,0.2-0.5,0.3-0.7c0.2-0.4,0.4-0.8,0.6-1.1c0.1-0.2,0.2-0.4,0.3-0.6c0.3-0.5,0.6-0.9,0.9-1.4c0.1-0.1,0.1-0.2,0.2-0.3   c0.4-0.5,0.8-1.1,1.2-1.6c0.1-0.1,0.2-0.2,0.3-0.4c0.3-0.4,0.6-0.8,1-1.1c0.2-0.2,0.3-0.3,0.5-0.5c0.3-0.3,0.6-0.6,0.9-0.9   c0.2-0.2,0.4-0.4,0.6-0.5c0.2-0.2,0.5-0.4,0.7-0.6c0.3,0.2,0.5,0.4,0.7,0.6c0.2,0.2,0.4,0.4,0.6,0.5c0.3,0.3,0.6,0.6,0.9,0.9   c0.2,0.2,0.4,0.3,0.5,0.5c0.3,0.4,0.7,0.7,1,1.1c0.1,0.1,0.2,0.2,0.3,0.4c0.4,0.5,0.8,1,1.2,1.6c0.1,0.1,0.1,0.2,0.2,0.3   c0.3,0.4,0.6,0.9,0.9,1.3c0.1,0.2,0.2,0.4,0.3,0.6c0.2,0.4,0.4,0.7,0.6,1.1c0.1,0.2,0.2,0.5,0.3,0.7c0.2,0.4,0.3,0.7,0.5,1.1   c0.1,0.3,0.2,0.6,0.3,0.8c0.1,0.3,0.2,0.5,0.3,0.8c-0.3,0.1-0.7,0.2-1,0.3C57.3,59,57,59.1,56.7,59.1z"/>
	<path id="color_wheel_1_" display="none" d="M76.9,40.8c0.7-2.5,1.1-5.2,1.1-7.8C78,17.6,65.4,5,50,5S22,17.6,22,33   c0,2.7,0.4,5.3,1.1,7.8C12.3,44.9,5,55.4,5,67c0,15.4,12.6,28,28,28c6.2,0,12.1-2,17-5.8C54.9,93,60.8,95,67,95   c15.4,0,28-12.6,28-28C95,55.4,87.7,44.9,76.9,40.8z M50,46c4.1,3.3,7.1,7.6,8.7,12.6c-5.6,1.9-11.8,1.9-17.3,0   C42.9,53.6,45.9,49.3,50,46z M50,6c14.9,0,27,12.1,27,27c0,2.5-0.4,5.1-1,7.5c-2.9-1-5.9-1.5-9-1.5c-6.2,0-12.1,2-17,5.8l0,0l0,0   C45.1,41,39.2,39,33,39c-3.1,0-6.1,0.5-9,1.5c-0.7-2.4-1-4.9-1-7.5C23,18.1,35.1,6,50,6z M6,67c0-11.2,7-21.3,17.4-25.3   c2.6,8,8.8,14.5,16.7,17.4l0,0l0,0C39.4,61.7,39,64.3,39,67c0,8.4,3.7,16.3,10.2,21.6C44.5,92.1,38.9,94,33,94C18.1,94,6,81.9,6,67   z M67,94c-5.9,0-11.5-1.9-16.2-5.4C57.3,83.3,61,75.4,61,67c0-2.7-0.4-5.3-1.1-7.8l0,0l0,0c7.9-3,14.1-9.4,16.7-17.4   C87,45.7,94,55.8,94,67C94,81.9,81.9,94,67,94z"/>
	<path id="color_wheel" display="none" d="M76.9,40.8c0.7-2.5,1.1-5.1,1.1-7.8C78,17.6,65.4,5,50,5S22,17.6,22,33   c0,2.7,0.4,5.3,1.1,7.8C12.5,44.8,5,55,5,67c0,15.4,12.6,28,28,28c6.4,0,12.3-2.2,17-5.8c4.7,3.6,10.6,5.8,17,5.8   c15.4,0,28-12.6,28-28C95,55,87.5,44.8,76.9,40.8z M23,33C23,18.1,35.1,6,50,6s27,12.1,27,27c0,2.6-0.4,5.1-1.1,7.5   c-2.8-1-5.8-1.5-8.9-1.5c-6.4,0-12.3,2.2-17,5.8C45.3,41.2,39.4,39,33,39c-3.1,0-6.1,0.5-8.9,1.5C23.4,38.1,23,35.6,23,33z M50,60   c-3,0-5.9-0.5-8.7-1.4C43,53.6,46,49.3,50,46c4,3.2,7,7.6,8.7,12.5C55.9,59.5,53,60,50,60z M58.9,59.5c0.7,2.4,1.1,4.9,1.1,7.5   c0,8.5-3.9,16-10,21c-6.1-5-10-12.5-10-21c0-2.6,0.4-5.1,1.1-7.5c2.8,1,5.8,1.5,8.9,1.5S56.1,60.5,58.9,59.5z M40.4,58.2   c-7.6-2.9-13.5-9.1-16.1-16.8C27.1,40.5,30,40,33,40c6.1,0,11.7,2,16.2,5.4C45.2,48.7,42.1,53.2,40.4,58.2z M50.8,45.4   C55.3,42,60.9,40,67,40c3,0,5.9,0.5,8.7,1.4c-2.5,7.7-8.5,13.9-16.1,16.8C57.9,53.2,54.8,48.7,50.8,45.4z M33,94   C18.1,94,6,81.9,6,67c0-11.5,7.2-21.4,17.4-25.2c2.7,8,8.8,14.5,16.7,17.4C39.4,61.7,39,64.3,39,67c0,8.7,4,16.5,10.2,21.6   C44.7,92,39.1,94,33,94z M67,94c-6.1,0-11.7-2-16.2-5.4C57,83.5,61,75.7,61,67c0-2.7-0.4-5.3-1.1-7.8c7.9-3,14.1-9.4,16.7-17.4   C86.8,45.6,94,55.5,94,67C94,81.9,81.9,94,67,94z"/>
	<g id="harmonius_triangles" display="none">
		<path id="svg" display="inline" d="M88.7,22h-0.5h-0.3H77.7h-0.3H67.1h-0.3H56.4h-0.3H43.8h-0.3H33.2h-0.3H22.6h-0.3H12.1h-0.3h-3    H5v20.9v1v12.1v1V78h3.5h3.4h0.3h10.4h0.3h10.3h0.3h10.2h0.3h12.3h0.3h10.2h0.3h10.3h0.3h10.4h0.3h1.1H95V57.1v-1V43.9v-1V22H88.7    z M77.9,23h9.2L70.9,42.9h-9.2L77.9,23z M61.6,43.9h8.5l-4.3,5.3L61.6,43.9z M70.1,56.1h-8.5l4.3-5.3L70.1,56.1z M61.1,23H66    l-4.9,6.1V23z M61.1,30.7l6.2-7.7h9.3L61.1,42.1V30.7z M61.1,45l4.1,5l-4.1,5V45z M55.4,23L50,29.6L44.6,23H55.4z M49.1,43.9    l-4.4,5.4l-4.4-5.4H49.1z M40.5,42.9l4.2-5.1l4.2,5.1H40.5z M50,44.4l4.7,5.7L50,55.9l-4.7-5.7L50,44.4z M48.8,56.1h-8.3l4.1-5.1    L48.8,56.1z M49.1,57.1l-4.3,5.3l-4.3-5.3H49.1z M50,57.5l4.6,5.7L50,68.8l-4.6-5.7L50,57.5z M50.9,57.1h8.6l-4.3,5.3L50.9,57.1z     M51.2,56.1l4.1-5.1l4.1,5.1H51.2z M50.9,43.9h8.8l-4.4,5.4L50.9,43.9z M51.2,42.9l4.2-5.1l4.2,5.1H51.2z M50,42.8L45.3,37    l4.7-5.8l4.7,5.8L50,42.8z M39.9,23h3.5l6,7.4l-4.7,5.8l-4.8-5.9V23z M39.9,31.9L44,37l-4.1,5.1V31.9z M39.9,45l4.2,5.2l-4.2,5.2    V45z M39.9,57.9l4.3,5.3l-4.3,5.3V57.9z M22.1,23l16.1,19.9h-9.2L12.9,23H22.1z M29.9,43.9h8.5l-4.3,5.3L29.9,43.9z M38.4,56.1    h-8.5l4.3-5.3L38.4,56.1z M6,23h5.7l16.1,19.9H6V23z M6,43.9h22.6l4.9,6.1l-4.9,6.1H6V43.9z M11.7,77H6V57.1h21.8L11.7,77z     M22.3,77H13l16.1-19.9h9.4L22.3,77z M38.9,77h-4.7l4.7-5.8V77z M38.9,69.7L32.9,77h-9.3l15.2-18.8V69.7z M38.9,55.1l-4.1-5l4.1-5    V55.1z M38.9,42.1L23.4,23h9.3l6.2,7.7V42.1z M38.9,29.1L34,23h4.9V29.1z M43.4,77h-3.5v-7l4.9-6.1l4.6,5.7L43.4,77z M44.7,77    l5.3-6.6l5.3,6.6H44.7z M60.1,77h-3.5l-6-7.4l4.6-5.7l4.9,6.1V77z M60.1,68.4l-4.3-5.3l4.3-5.3V68.4z M60.1,55.3l-4.2-5.2l4.2-5.2    V55.3z M60.1,42.1L56,37l4.1-5.1V42.1z M60.1,30.3l-4.8,5.9l-4.7-5.8l6-7.4h3.5V30.3z M61.1,77v-5.8l4.7,5.8H61.1z M67.1,77    l-5.9-7.3V58.2L76.4,77H67.1z M77.7,77L61.5,57.1h9.4L87,77H77.7z M94,77h-5.7L72.2,57.1H94V77z M94,56.1H71.4L66.5,50l4.9-6.1H94    V56.1z M94,42.9H72.2L88.3,23H94V42.9z"/>
		<g id="_x31_pt_line_15_" display="inline">
			<line fill="none" stroke="#000000" stroke-miterlimit="10" x1="56.7" y1="22.2" x2="11.7" y2="77.8"/>
			<line fill="none" stroke="#000000" stroke-miterlimit="10" x1="77.9" y1="22.2" x2="32.9" y2="77.8"/>
			<line fill="none" stroke="#000000" stroke-miterlimit="10" x1="67.3" y1="22.2" x2="22.3" y2="77.8"/>
			<line fill="none" stroke="#000000" stroke-miterlimit="10" x1="88.4" y1="22.2" x2="43.4" y2="77.8"/>
			<line fill="none" stroke="#000000" stroke-miterlimit="10" x1="43.3" y1="22.2" x2="88.3" y2="77.8"/>
			<line fill="none" stroke="#000000" stroke-miterlimit="10" x1="22.1" y1="22.2" x2="67.1" y2="77.8"/>
			<line fill="none" stroke="#000000" stroke-miterlimit="10" x1="32.7" y1="22.2" x2="77.7" y2="77.8"/>
			<line fill="none" stroke="#000000" stroke-miterlimit="10" x1="11.6" y1="22.2" x2="56.6" y2="77.8"/>
			<g id="_x31_pt_line_16_">
				<g>
					<path d="M94,23v54H6V23H94 M95,22H5v56h90V22L95,22z"/>
				</g>
				<line fill="none" stroke="#000000" stroke-miterlimit="10" x1="5" y1="43.4" x2="95" y2="43.4"/>
				<line fill="none" stroke="#000000" stroke-miterlimit="10" x1="5" y1="56.6" x2="95" y2="56.6"/>
				<line fill="none" stroke="#000000" stroke-miterlimit="10" x1="39.4" y1="22.2" x2="39.4" y2="77.8"/>
				<line fill="none" stroke="#000000" stroke-miterlimit="10" x1="60.6" y1="22.2" x2="60.6" y2="77.8"/>
			</g>
		</g>
	</g>
	<g id="rule_of_thirds__x5B_box_x5D_" display="none">
		<path id="svg_2_" display="inline" d="M5,22v56h90V22H5z M94,37.3H70.2V23H94V37.3z M30.7,61.7V38.3h38.5v23.4H30.7z M69.2,62.7    V77H30.7V62.7H69.2z M29.8,61.7H6V38.3h23.8V61.7z M30.7,37.3V23h38.5v14.3H30.7z M70.2,38.3H94v23.4H70.2V38.3z M29.8,23v14.3H6    V23H29.8z M6,62.7h23.8V77H6V62.7z M70.2,77V62.7H94V77H70.2z"/>
		<g id="_x31_pt_line_14_" display="inline">
			<rect x="5.5" y="22.5" fill="none" stroke="#000000" stroke-miterlimit="10" width="89" height="55"/>
			<line fill="none" stroke="#000000" stroke-miterlimit="10" x1="30.3" y1="77.5" x2="30.3" y2="22.5"/>
			<line fill="none" stroke="#000000" stroke-miterlimit="10" x1="69.7" y1="77.5" x2="69.7" y2="22.5"/>
			<line fill="none" stroke="#000000" stroke-miterlimit="10" x1="5.5" y1="37.8" x2="94.5" y2="37.8"/>
			<line fill="none" stroke="#000000" stroke-miterlimit="10" x1="5.5" y1="62.2" x2="94.5" y2="62.2"/>
		</g>
	</g>
	<g id="golden_spiral__x5B_box_x5D__1_" display="none">
		<path id="_x31_pt_stroke_6_" display="inline" d="M5,22v56h90V22H5z M6,23h44.1C27.8,27.2,10.2,44.8,6,67.1V23z M6,77    c0.3-29.8,24.6-54,54.5-54C79,23,94,38,94,56.5C94,67.8,84.8,77,73.5,77C66.6,77,61,71.4,61,64.5c0-4.2,3.4-7.5,7.5-7.5    c2.5,0,4.5,2,4.5,4.5c0,1.4-1.2,2.6-2.6,2.6c-0.8,0-1.4-0.6-1.4-1.4h-1c0,1.3,1.1,2.4,2.4,2.4c2,0,3.6-1.6,3.6-3.6    c0-3-2.4-5.4-5.4-5.4c-4.7,0-8.5,3.8-8.5,8.5c0,5.6,3.5,10.5,8.4,12.5H6z M94,77H79.9c6.7-2.1,12-7.4,14.1-14.1V77z M68.7,23H94    v25.3C91,35.9,81.1,26,68.7,23z"/>
		<g id="_x31_pt_line_12_" display="inline">
			<rect x="5.5" y="22.5" fill="none" stroke="#000000" stroke-miterlimit="10" width="89" height="55"/>
			<path id="_x31_pt_line_13_" fill="none" stroke="#000000" stroke-miterlimit="10" d="M68.5,62.7c0,1,0.8,1.9,1.9,1.9     c1.7,0,3.1-1.4,3.1-3.1c0-2.7-2.2-5-5-5c-4.4,0-8,3.6-8,8c0,7.2,5.8,13,13,13c11.6,0,21-9.4,21-21c0-18.8-15.2-34-34-34     c-30.4,0-55,24.6-55,55"/>
		</g>
	</g>
	<g id="golden_mean__x5B_box_x5D__1_" display="none">
		<path id="svg_3_" display="inline" d="M5,22v20.9v1v12.1v1V78h90V57.1v-1V43.9v-1V22H5z M39.9,56.1V43.9h20.2v12.1H39.9z     M60.1,57.1V77H39.9V57.1H60.1z M39.9,42.9V23h20.2v19.9H39.9z M6,23h32.9v19.9H6V23z M6,43.9h32.9v12.1H6V43.9z M6,57.1h32.9V77    H6V57.1z M94,77H61.1V57.1H94V77z M94,56.1H61.1V43.9H94V56.1z M61.1,42.9V23H94v19.9H61.1z"/>
		<g id="_x31_pt_line_4_" display="inline">
			<g>
				<path d="M94,23v54H6V23H94 M95,22H5v56h90V22L95,22z"/>
			</g>
			<line fill="none" stroke="#000000" stroke-miterlimit="10" x1="5" y1="43.4" x2="95" y2="43.4"/>
			<line fill="none" stroke="#000000" stroke-miterlimit="10" x1="5" y1="56.6" x2="95" y2="56.6"/>
			<line fill="none" stroke="#000000" stroke-miterlimit="10" x1="39.4" y1="22.2" x2="39.4" y2="77.8"/>
			<line fill="none" stroke="#000000" stroke-miterlimit="10" x1="60.6" y1="22.2" x2="60.6" y2="77.8"/>
		</g>
	</g>
	<g id="golden_triangles__x5B_box_x5D__1_">
		<path id="svg_5_" d="M5,22v56h90V22H5z M7.2,23h86.2L64.7,58.5L7.2,23z M34.4,41L6,76.1V23.4L34.4,41z M35.3,41.5L92.8,77H6.5    L35.3,41.5z M65.6,59L94,23.9v52.7L65.6,59z"/>
		<g id="_x31_pt_line_11_" display="none">
			<rect x="5.5" y="22.5" display="inline" fill="none" stroke="#000000" stroke-miterlimit="10" width="89" height="55"/>
			<line display="inline" fill="none" stroke="#000000" stroke-miterlimit="10" x1="5.5" y1="22.5" x2="94.5" y2="77.5"/>
			<line display="inline" fill="none" stroke="#000000" stroke-miterlimit="10" x1="35.2" y1="40.8" x2="5.5" y2="77.5"/>
			<line display="inline" fill="none" stroke="#000000" stroke-miterlimit="10" x1="64.8" y1="59.2" x2="94.5" y2="22.5"/>
		</g>
	</g>
	<g id="golden_triangles__x5B_box_x5D_" display="none">
		<path id="svg_4_" display="inline" d="M5,22v56h90V22H5z M35.1,40.2L7.2,23H49L35.1,40.2z M50.2,23h43.2L64.7,58.5L35.9,40.7    L50.2,23z M34.4,41L6,76.1V23.4L34.4,41z M35.3,41.5l28.8,17.8L49.8,77H6.5L35.3,41.5z M64.9,59.8L92.8,77H51L64.9,59.8z M65.6,59    L94,23.9v52.7L65.6,59z"/>
		<g id="_x31_pt_line_10_">
			<rect x="5.5" y="22.5" display="inline" fill="none" stroke="#000000" stroke-miterlimit="10" width="89" height="55"/>
			<line display="inline" fill="none" stroke="#000000" stroke-miterlimit="10" x1="5.5" y1="22.5" x2="94.5" y2="77.5"/>
			<line display="inline" fill="none" stroke="#000000" stroke-miterlimit="10" x1="50" y1="22.5" x2="5.5" y2="77.5"/>
			<line display="inline" fill="none" stroke="#000000" stroke-miterlimit="10" x1="50" y1="77.5" x2="94.5" y2="22.5"/>
		</g>
	</g>
	<g id="golden_triangles__x5B_box_x5D__2_" display="none">
		<path id="svg_6_" display="inline" d="M5,22v56h90V22H5z M64.7,58.5L50.9,50l13.8-8.5l6.9,8.5L64.7,58.5z M72.3,50.8l20,24.8    L65.6,59L72.3,50.8z M28.4,50l6.9-8.5L49.1,50l-13.8,8.5L28.4,50z M34.4,59L7.7,75.6l20-24.8L34.4,59z M27.7,49.2l-20-24.8    L34.4,41L27.7,49.2z M35.9,40.7L50,23.3l14.1,17.4L50,49.4L35.9,40.7z M50,50.6l14.1,8.7L50,76.7L35.9,59.3L50,50.6z M65.6,41    l26.7-16.5l-20,24.8L65.6,41z M64.9,40.2L51,23h41.7L64.9,40.2z M35.1,40.2L7.2,23H49L35.1,40.2z M27.1,50L6,76.1V23.9L27.1,50z     M35.1,59.8L49,77H7.2L35.1,59.8z M64.9,59.8L92.8,77H51L64.9,59.8z M72.9,50L94,23.9v52.2L72.9,50z"/>
		<g id="_x31_pt_line_5_">
			<rect x="5.5" y="22.5" display="inline" fill="none" stroke="#000000" stroke-miterlimit="10" width="89" height="55"/>
			<line display="inline" fill="none" stroke="#000000" stroke-miterlimit="10" x1="5.5" y1="22.5" x2="94.5" y2="77.5"/>
			<line display="inline" fill="none" stroke="#000000" stroke-miterlimit="10" x1="50" y1="22.5" x2="5.5" y2="77.5"/>
			<line display="inline" fill="none" stroke="#000000" stroke-miterlimit="10" x1="50" y1="77.5" x2="94.5" y2="22.5"/>
			<line display="inline" fill="none" stroke="#000000" stroke-miterlimit="10" x1="94.5" y1="22.5" x2="5.5" y2="77.5"/>
			<line display="inline" fill="none" stroke="#000000" stroke-miterlimit="10" x1="50" y1="22.5" x2="94.5" y2="77.5"/>
			<line display="inline" fill="none" stroke="#000000" stroke-miterlimit="10" x1="50" y1="77.5" x2="5.5" y2="22.5"/>
		</g>
	</g>
</g>
<g id="fC">
</g>
</svg>