<?xml version="1.0" encoding="utf-8"?>
<!-- Generator: Adobe Illustrator 16.0.0, SVG Export Plug-In . SVG Version: 6.00 Build 0)  -->
<!DOCTYPE svg PUBLIC "-//W3C//DTD SVG 1.1//EN" "http://www.w3.org/Graphics/SVG/1.1/DTD/svg11.dtd">
<svg version="1.1" id="Layer_1" xmlns="http://www.w3.org/2000/svg" xmlns:xlink="http://www.w3.org/1999/xlink" x="0px" y="0px"
	 width="469.448px" height="342px" viewBox="0 0 469.448 342" enable-background="new 0 0 469.448 342" xml:space="preserve">
<text transform="matrix(1 0 0 1 9.542 254.3828)"  fill = "#fff" font-family="'Andale Mono'" font-size="77.4622" letter-spacing="20">VANESSA</text>
<text transform="matrix(1 0 0 1 9.542 320.2188)" fill = "#fff" font-family="'Andale Mono'" font-size="77.4622" letter-spacing="20">MERRITT</text>
<path fill="#fff" d="M267.693,182.504c3.09,0,6.168,0,9.232,0v-67.94c-3.052,1.391-6.131,2.774-9.232,4.15V182.504z"/>
<path fill="#fff" d="M208.447,182.504c3.079,0,6.156,0,9.232,0v-43.358c-3.06,1.143-6.139,2.27-9.232,3.384V182.504z"/>
<path fill="#D989BB" d="M307.191,182.504c3.1,0,6.179,0,9.232,0V95.506c-3.042,1.549-6.123,3.098-9.232,4.643V182.504z"/>
<path fill="#fff" d="M326.939,182.504c3.108,0,6.187,0,9.232,0V85.185c-3.036,1.627-6.115,3.258-9.232,4.89V182.504z"/>
<path fill="#fff" d="M228.195,182.504c3.082,0,6.16,0,9.232,0v-51.008c-3.057,1.227-6.136,2.442-9.232,3.644V182.504z"/>
<path fill="#fff" d="M247.944,182.504c3.087,0,6.164,0,9.232,0v-59.205c-3.057,1.31-6.134,2.609-9.232,3.898V182.504z"/>
<path fill="#fff" d="M287.441,182.504c3.096,0,6.175,0,9.234,0v-77.205c-3.05,1.472-6.127,2.939-9.234,4.399V182.504z"/>
<path fill="#fff" d="M445.434,18.019v164.485c3.515,0,6.604,0,9.233,0V11.406C452.05,13.312,448.961,15.53,445.434,18.019z"/>
<path fill="#D989BB" d="M425.685,182.504c3.252,0,6.333,0,9.233,0V25.32c-2.892,1.977-5.97,4.059-9.233,6.237V182.504z"/>
<path fill="#fff" d="M366.438,182.504c3.131,0,6.21,0,9.233,0V62.945c-3.016,1.782-6.093,3.58-9.233,5.394V182.504z"/>
<path fill="#fff" d="M346.688,182.504c3.117,0,6.198,0,9.235,0V74.336c-3.027,1.704-6.108,3.417-9.235,5.137V182.504z"/>
<path fill="#fff" d="M386.187,182.504c3.149,0,6.229,0,9.233,0v-131.5c-2.996,1.854-6.074,3.741-9.233,5.653V182.504z"/>
<path fill="#fff" d="M405.937,182.504c3.182,0,6.261,0,9.231,0V38.479c-2.962,1.925-6.041,3.903-9.231,5.93V182.504z"/>
<path fill="#fff" d="M50.455,182.504c3.031,0,6.109,0,9.233,0v-3.627c-3.073,0.365-6.151,0.705-9.233,1.018V182.504z"/>
<path fill="#fff" d="M30.706,182.504c3.015,0,6.094,0,9.233,0v-1.65c-3.075,0.25-6.152,0.469-9.233,0.664V182.504z"/>
<path fill="#fff" d="M70.204,182.504c3.042,0,6.12,0,9.233,0v-6.328c-3.072,0.475-6.149,0.926-9.233,1.352V182.504z"/>
<path fill="#fff" d="M10.957,182.504c2.99,0,6.069,0,9.233,0v-0.434c-3.076,0.129-6.154,0.236-9.233,0.307V182.504z"/>
<path fill="#fff" d="M0.441,182.504v-0.002c-0.147,0-0.294,0.002-0.441,0.002C0.147,182.504,0.293,182.504,0.441,182.504z"/>
<path fill="#fff" d="M168.948,182.504c3.071,0,6.149,0,9.233,0v-29.75c-3.064,0.967-6.144,1.914-9.233,2.846V182.504z"/>
<path fill="#fff" d="M89.953,182.504c3.05,0,6.129,0,9.233,0v-9.718c-3.07,0.58-6.149,1.135-9.233,1.668V182.504z"/>
<path fill="#fff" d="M188.697,182.504c3.075,0,6.153,0,9.233,0v-36.267c-3.062,1.055-6.142,2.094-9.233,3.117V182.504z"/>
<path fill="#fff" d="M149.2,182.504c3.066,0,6.145,0,9.233,0v-23.819c-3.067,0.875-6.145,1.73-9.233,2.567V182.504z"/>
<path fill="#fff" d="M129.451,182.504c3.062,0,6.14,0,9.233,0v-18.491c-3.068,0.781-6.146,1.542-9.233,2.28V182.504z"/>
<path fill="#fff" d="M109.702,182.504c3.056,0,6.135,0,9.233,0v-13.782c-3.07,0.683-6.147,1.345-9.233,1.983V182.504z"/>
</svg>
